<svg xmlns="http://www.w3.org/2000/svg" viewBox="0 0 158.93 206.13"><title>Asset 5</title><g id="Layer_2" data-name="Layer 2"><g id="Layer_1-2" data-name="Layer 1"><path d="M132.82,57.16c11.78,17.92,37,56.59,20.85,97.2-11.12,27.9-40.94,53.23-74.62,51.7C30.36,203.85-10.68,149.4,2.49,105.53c10.53-35,51.18-48,55.73-49.34-.82,1-13.75,16.91-7.39,34,2.88,7.73,10.81,18.63,21,18.11,12-.61,18.2-16.4,19.25-19.07C94.6,80.39,94.46,71,90.8,56.9,87.48,44.11,80.2,23.23,62.6,0,77.21,6.05,109.61,21.86,132.82,57.16Z"/></g></g></svg>