<svg xmlns="http://www.w3.org/2000/svg" viewBox="0 0 158.91 222.59"><title>Asset 6</title><g id="Layer_2" data-name="Layer 2"><g id="Layer_1-2" data-name="Layer 1"><path d="M9.46,98.39c-2.56,5.33-17.69,38.19-3.4,72.43,11.58,27.75,40.94,53.23,74.62,51.7,47.62-2.16,86.92-55,76.56-100.53-7.83-34.42-41-51.17-46.69-53.95,5.88,25-6,44.67-19.17,47.09C81.18,117,67.62,109,65.58,99,63.15,87.08,78.7,80.16,86.84,62.89c5.68-12,8.81-31.42-4.12-62.89A268,268,0,0,1,58.26,40.15C34.08,73,20.32,75.81,9.46,98.39Z"/></g></g></svg>